<svg width="18" height="17" viewBox="0 0 18 17" fill="none" xmlns="http://www.w3.org/2000/svg">
<path d="M0.0571289 5.21717C3.59349 3.17099 8.7036 1.50006 10.7334 2.4701C11.72 2.94158 12.461 3.91543 12.461 5.21717C12.461 6.51892 11.72 7.49276 10.7334 7.96425C8.7036 8.93428 3.59349 7.26335 0.0571289 5.21717Z" fill="#C95C3E"/>
<path d="M3.0338 5.21722L0.0571289 5.21718C0.0571289 5.21718 0.650219 4.86203 1.58359 4.40494C1.88672 4.7902 2.52679 5.1526 3.0338 5.21722L0.0571289 5.21728C0.0571289 5.21728 0.650219 5.57243 1.58359 6.02952C1.88672 5.64426 2.52679 5.28186 3.0338 5.21722Z" fill="#82D4F7"/>
<path d="M17.8936 0.731476H15.5703C13.9675 0.731476 12.828 1.01252 11.8004 2.08787L0.941895 12.9625H8.86417C12.3357 12.9625 14.4048 10.9382 15.4747 7.80823L17.8936 0.731476Z" fill="#E76B47"/>
<path d="M9.15072 17C8.75315 12.5338 9.46005 6.67696 11.3689 5.1089C12.2967 4.3468 13.6111 4.06198 14.9083 4.6662C16.2056 5.27045 16.832 6.45937 16.844 7.65917C16.8684 10.1278 12.8313 14.4334 9.15072 17Z" fill="#E76B47"/>
<path d="M15.8339 7.84149C15.5904 8.13001 15.2273 8.36273 14.8627 8.46063C14.5916 8.54715 14.3205 8.62938 14.1067 8.82415C13.734 9.16368 13.498 9.76265 13.7818 10.3609C13.4134 10.2381 13.1224 9.92348 13.0229 9.57369C12.9106 9.17995 13.0371 8.71375 13.3299 8.42533C13.3554 8.40021 13.3828 8.37696 13.4118 8.35588C13.2872 8.28598 13.1726 8.19689 13.0759 8.09848C13.0143 8.03589 12.9577 7.96862 12.9077 7.89664C12.7778 7.70966 12.7236 7.4887 12.7137 7.2611C12.686 6.62261 13.2111 5.88387 13.9005 5.9986C14.1008 6.03213 14.2295 6.10562 14.3516 6.26749C14.5452 6.52432 14.5429 6.91936 14.3166 7.1497C14.2131 7.25499 14.0979 7.31674 13.9448 7.34717C13.9448 7.34717 14.2803 7.5867 14.6235 7.40121C14.9006 7.25128 15.0664 6.93923 15.0759 6.64443C15.0938 6.08708 14.7501 5.62383 14.24 5.4297C13.8263 5.27208 13.3612 5.26987 12.9344 5.38774C11.7628 5.71161 10.7614 6.85647 10.1067 8.22134C9.39029 9.71474 9.12854 11.9625 9.08263 12.9625C9.0126 12.0232 9.10888 10.1762 9.23855 9.17276C9.34288 8.36531 9.51572 7.69191 9.6861 7.24129C10.6777 4.6189 13.0108 3.56484 14.8884 4.36367C15.3538 4.56174 15.9519 5.08259 16.1953 5.69889C16.4496 6.34328 16.3873 7.12856 15.8339 7.84149Z" fill="#FEFEFE"/>
<path d="M10.5329 14.0401L9.15114 16.9999C9.15114 16.9999 9.07253 16.2453 9.05029 15.1051C9.57492 14.9825 10.2332 14.5143 10.5329 14.0401L9.15125 17C9.15125 17 9.78048 16.5751 10.6692 15.8592C10.426 15.379 10.362 14.5743 10.5329 14.0401Z" fill="#82D4F7"/>
</svg>
