<svg width="1440" height="259" viewBox="0 0 1440 259" fill="none" xmlns="http://www.w3.org/2000/svg">
<path d="M-73.8361 238.794H-2.3461C17.4511 238.794 32.7268 233.774 43.4809 223.732C54.4793 213.445 59.9786 199.485 59.9786 181.851C59.9786 164.217 54.4793 150.379 43.4809 140.338C32.7268 130.051 17.4511 124.908 -2.3461 124.908H-73.8361V238.794ZM-94 257.163V0H63.6447V18.3688H-73.8361V106.539H-0.513009C23.928 106.539 43.4809 113.519 58.1455 127.479C72.8101 141.44 80.1424 159.564 80.1424 181.851C80.1424 204.139 72.8101 222.262 58.1455 236.223C43.4809 250.183 23.928 257.163 -0.513009 257.163H-94Z" fill="white"/>
<path d="M169.152 257.163L204.347 180.014L114.159 0H136.156L213.879 156.135H215.712L286.469 0H308.466L191.149 257.163H169.152Z" fill="white"/>
<path d="M320.142 259V238.794H323.808C335.295 238.794 344.339 235.61 350.938 229.243C357.537 222.63 362.547 210.874 365.969 193.974C369.635 177.075 371.468 153.441 371.468 123.071V0H530.946V257.163H510.782V18.3688H391.632V123.071C391.632 173.769 386.744 209.159 376.967 229.243C367.191 249.081 349.471 259 323.808 259H320.142Z" fill="white"/>
<path d="M636.124 238.794H707.614C726.678 238.794 741.831 233.406 753.074 222.63C764.317 211.853 769.938 197.648 769.938 180.014C769.938 162.38 764.317 148.175 753.074 137.399C741.831 126.622 726.678 121.234 707.614 121.234H636.124V238.794ZM615.96 257.163V0H636.124V102.865H709.447C734.132 102.865 753.685 109.968 768.105 124.173C782.77 138.378 790.102 156.992 790.102 180.014C790.102 203.036 782.77 221.65 768.105 235.855C753.685 250.061 734.132 257.163 709.447 257.163H615.96Z" fill="white"/>
<path d="M878.983 238.794H965.137C982.49 238.794 995.933 234.141 1005.46 224.834C1015.24 215.527 1020.13 203.036 1020.13 187.362C1020.13 172.422 1015.24 160.421 1005.46 151.359C995.688 142.297 982.246 137.766 965.137 137.766H878.983V238.794ZM858.819 257.163V0H963.304C986.034 0 1003.88 6.36785 1016.83 19.1036C1030.03 31.5943 1036.63 48.4936 1036.63 69.8014C1036.63 82.782 1033.21 94.4156 1026.36 104.702C1019.52 114.744 1010.11 122.091 998.133 126.745C1011.09 131.398 1021.35 139.113 1028.93 149.889C1036.51 160.421 1040.29 172.912 1040.29 187.362C1040.29 208.669 1033.69 225.691 1020.5 238.427C1007.54 250.918 989.7 257.163 966.97 257.163H858.819ZM878.983 119.397H961.471C978.58 119.397 992.022 114.866 1001.8 105.804C1011.58 96.7423 1016.46 84.7414 1016.46 69.8014C1016.46 54.1267 1011.58 41.6359 1001.8 32.3291C992.267 23.0222 978.824 18.3688 961.471 18.3688H878.983V119.397Z" fill="white"/>
<path d="M1084.88 257.163L1182.03 0H1205.86L1303.02 257.163H1282.85L1257.19 189.199H1130.71L1105.04 257.163H1084.88ZM1137.67 170.83H1250.22L1194.86 23.8794H1193.03L1137.67 170.83Z" fill="white"/>
<path d="M1358.86 257.163V0H1452.34C1477.03 0 1496.58 7.22506 1511 21.6752C1525.67 35.8804 1533 54.9839 1533 78.9858C1533 102.988 1525.67 122.214 1511 136.664C1496.58 150.869 1477.03 157.972 1452.34 157.972H1379.02V257.163H1358.86ZM1379.02 139.603H1450.51C1469.58 139.603 1484.73 134.092 1495.97 123.071C1507.21 112.05 1512.84 97.3546 1512.84 78.9858C1512.84 60.617 1507.21 45.922 1495.97 34.9007C1484.73 23.8794 1469.58 18.3688 1450.51 18.3688H1379.02V139.603Z" fill="white"/>
</svg>
